<svg xmlns="http://www.w3.org/2000/svg" width="167" height="60" viewBox="0 0 167 60">
  <g id="playstore-02" transform="translate(-1036 -637)">
    <rect id="Rectangle_3" data-name="Rectangle 3" width="167" height="60" rx="7" transform="translate(1036 637)" fill="#020707"/>
    <g id="Group_9" data-name="Group 9" transform="translate(0.42 4.165)">
      <g id="Group_5" data-name="Group 5" transform="translate(1048 643.947)">
        <g id="Group_4" data-name="Group 4" transform="translate(0 0)">
          <path id="Path_14" data-name="Path 14" d="M35.386,22.032a7.555,7.555,0,0,1,3.6-6.339A7.738,7.738,0,0,0,32.89,12.4c-2.564-.27-5.05,1.534-6.356,1.534-1.332,0-3.343-1.508-5.51-1.464a8.113,8.113,0,0,0-6.829,4.165c-2.953,5.113-.751,12.626,2.079,16.759,1.415,2.024,3.069,4.284,5.234,4.2,2.118-.087,2.909-1.35,5.465-1.35,2.532,0,3.275,1.35,5.483,1.3,2.273-.036,3.7-2.033,5.07-4.075a16.724,16.724,0,0,0,2.319-4.722A7.3,7.3,0,0,1,35.386,22.032Z" transform="translate(-12.792 -4.351)" fill="#fff"/>
          <path id="Path_15" data-name="Path 15" d="M28.087,11.546a7.436,7.436,0,0,0,1.7-5.329,7.575,7.575,0,0,0-4.9,2.534,7.077,7.077,0,0,0-1.746,5.132A6.257,6.257,0,0,0,28.087,11.546Z" transform="translate(-9.664 -6.217)" fill="#fff"/>
        </g>
      </g>
      <g id="Group_6" data-name="Group 6" transform="translate(1086.601 659.305)">
        <path id="Path_16" data-name="Path 16" d="M57.052,35.54h-2.96l-1.621-5.095H46.836L45.292,35.54H42.41L47.993,18.2h3.448Zm-5.07-7.232-1.466-4.529q-.233-.694-.875-3.267H49.59q-.256,1.106-.824,3.267l-1.44,4.529Z" transform="translate(-42.41 -17.942)" fill="#fff"/>
        <path id="Path_17" data-name="Path 17" d="M67.465,28.067a7.107,7.107,0,0,1-1.724,5.042,5.042,5.042,0,0,1-3.834,1.647,3.834,3.834,0,0,1-3.551-1.775H58.3V39.57H55.524V26.085q0-2.006-.1-4.117h2.444l.155,1.982h.052a4.944,4.944,0,0,1,7.912-.49A6.89,6.89,0,0,1,67.465,28.067Zm-2.831.1a5.149,5.149,0,0,0-.824-3.011,2.845,2.845,0,0,0-2.419-1.236,2.889,2.889,0,0,0-1.865.682,3.162,3.162,0,0,0-1.093,1.789,3.638,3.638,0,0,0-.129.847v2.085a3.341,3.341,0,0,0,.837,2.3,2.773,2.773,0,0,0,2.174.94,2.845,2.845,0,0,0,2.444-1.209A5.323,5.323,0,0,0,64.634,28.169Z" transform="translate(-38.464 -16.876)" fill="#fff"/>
        <path id="Path_18" data-name="Path 18" d="M78.5,28.067a7.1,7.1,0,0,1-1.726,5.042,5.037,5.037,0,0,1-3.833,1.647,3.83,3.83,0,0,1-3.55-1.775h-.052V39.57H66.562V26.085q0-2.006-.1-4.117H68.9l.155,1.982h.052a4.945,4.945,0,0,1,7.913-.49A6.91,6.91,0,0,1,78.5,28.067Zm-2.831.1a5.149,5.149,0,0,0-.825-3.011,2.841,2.841,0,0,0-2.418-1.236,2.893,2.893,0,0,0-1.866.682,3.16,3.16,0,0,0-1.092,1.789,3.709,3.709,0,0,0-.129.847v2.085a3.352,3.352,0,0,0,.834,2.3,2.779,2.779,0,0,0,2.176.94,2.845,2.845,0,0,0,2.444-1.209A5.323,5.323,0,0,0,75.671,28.169Z" transform="translate(-35.116 -16.876)" fill="#fff"/>
        <path id="Path_19" data-name="Path 19" d="M90.543,30.735a4.622,4.622,0,0,1-1.54,3.6,6.828,6.828,0,0,1-4.724,1.518,8.27,8.27,0,0,1-4.5-1.08l.644-2.316a7.617,7.617,0,0,0,4.017,1.108,3.8,3.8,0,0,0,2.446-.709,2.315,2.315,0,0,0,.873-1.895,2.416,2.416,0,0,0-.721-1.778,6.7,6.7,0,0,0-2.393-1.341q-4.555-1.7-4.554-4.973a4.4,4.4,0,0,1,1.6-3.5A6.294,6.294,0,0,1,85.938,18a8.418,8.418,0,0,1,3.936.824L89.18,21.09a6.829,6.829,0,0,0-3.319-.8,3.36,3.36,0,0,0-2.289.721,2.059,2.059,0,0,0-.695,1.57,2.12,2.12,0,0,0,.8,1.7A9,9,0,0,0,86.2,25.62a8.56,8.56,0,0,1,3.293,2.109A4.406,4.406,0,0,1,90.543,30.735Z" transform="translate(-31.076 -18.001)" fill="#fff"/>
        <path id="Path_20" data-name="Path 20" d="M96.86,24.718H93.8V30.79q0,2.317,1.621,2.316a4.942,4.942,0,0,0,1.234-.129l.077,2.11a6.3,6.3,0,0,1-2.161.308,3.334,3.334,0,0,1-2.574-1,4.93,4.93,0,0,1-.927-3.372v-6.3H89.244V22.631h1.825v-2.29l2.729-.824v3.114H96.86Z" transform="translate(-28.206 -17.541)" fill="#fff"/>
        <path id="Path_21" data-name="Path 21" d="M108.542,28.118a6.86,6.86,0,0,1-1.647,4.735,5.881,5.881,0,0,1-4.582,1.9,5.592,5.592,0,0,1-4.386-1.826,6.65,6.65,0,0,1-1.634-4.606,6.793,6.793,0,0,1,1.685-4.76,5.832,5.832,0,0,1,4.541-1.853,5.711,5.711,0,0,1,4.426,1.827A6.574,6.574,0,0,1,108.542,28.118Zm-2.883.09a5.625,5.625,0,0,0-.745-2.968,2.745,2.745,0,0,0-2.494-1.5,2.786,2.786,0,0,0-2.548,1.5,5.733,5.733,0,0,0-.745,3.02,5.617,5.617,0,0,0,.745,2.966,2.84,2.84,0,0,0,5.018-.026A5.646,5.646,0,0,0,105.659,28.208Z" transform="translate(-26.069 -16.876)" fill="#fff"/>
        <path id="Path_22" data-name="Path 22" d="M114.178,24.411a4.825,4.825,0,0,0-.876-.077,2.625,2.625,0,0,0-2.265,1.108,4.164,4.164,0,0,0-.695,2.47v6.562h-2.777l.026-8.568q0-2.162-.1-3.937h2.42l.1,2.393h.077a4.277,4.277,0,0,1,1.389-1.981,3.36,3.36,0,0,1,2.008-.67,4.462,4.462,0,0,1,.695.051v2.65Z" transform="translate(-22.674 -16.876)" fill="#fff"/>
        <path id="Path_23" data-name="Path 23" d="M124.742,27.635a6.516,6.516,0,0,1-.1,1.26H116.3a3.628,3.628,0,0,0,1.209,2.832,4.129,4.129,0,0,0,2.726.875,9.219,9.219,0,0,0,3.373-.592l.435,1.929a10.427,10.427,0,0,1-4.193.773A6.074,6.074,0,0,1,115.287,33a6.32,6.32,0,0,1-1.659-4.593,7.165,7.165,0,0,1,1.546-4.709,5.325,5.325,0,0,1,4.372-2.006A4.661,4.661,0,0,1,123.64,23.7,6.764,6.764,0,0,1,124.742,27.635Zm-2.65-.721a3.775,3.775,0,0,0-.54-2.136,2.427,2.427,0,0,0-2.214-1.159,2.636,2.636,0,0,0-2.212,1.133,4.146,4.146,0,0,0-.822,2.161h5.788Z" transform="translate(-20.811 -16.881)" fill="#fff"/>
      </g>
      <g id="Group_8" data-name="Group 8" transform="translate(1088.25 644.389)">
        <g id="Group_7" data-name="Group 7" transform="translate(0 0)">
          <path id="Path_24" data-name="Path 24" d="M50.68,10.968A4.278,4.278,0,0,1,49.3,14.432a5.484,5.484,0,0,1-3.627,1.074,16.817,16.817,0,0,1-2-.1V7.023a14.743,14.743,0,0,1,2.352-.177A5.071,5.071,0,0,1,49.4,7.82,3.934,3.934,0,0,1,50.68,10.968Zm-1.44.038a3.115,3.115,0,0,0-.79-2.289,3.113,3.113,0,0,0-2.308-.8,5.78,5.78,0,0,0-1.1.089v6.372a7.211,7.211,0,0,0,.923.038,3.231,3.231,0,0,0,2.42-.872A3.492,3.492,0,0,0,49.24,11.006Z" transform="translate(-43.676 -6.468)" fill="#fff"/>
          <path id="Path_25" data-name="Path 25" d="M56.309,11.769A3.37,3.37,0,0,1,55.5,14.1a2.889,2.889,0,0,1-2.251.936,2.746,2.746,0,0,1-2.156-.9,3.27,3.27,0,0,1-.8-2.262,3.337,3.337,0,0,1,.828-2.338,2.87,2.87,0,0,1,2.231-.91,2.81,2.81,0,0,1,2.175.9A3.244,3.244,0,0,1,56.309,11.769Zm-1.417.044a2.779,2.779,0,0,0-.366-1.458A1.349,1.349,0,0,0,53.3,9.62a1.37,1.37,0,0,0-1.252.735,2.816,2.816,0,0,0-.366,1.483,2.779,2.779,0,0,0,.366,1.458,1.378,1.378,0,0,0,1.239.735,1.363,1.363,0,0,0,1.225-.748A2.761,2.761,0,0,0,54.893,11.813Z" transform="translate(-41.67 -5.929)" fill="#fff"/>
          <path id="Path_26" data-name="Path 26" d="M64.836,8.719l-1.922,6.144H61.663l-.8-2.668a19.967,19.967,0,0,1-.494-1.985h-.025a14.533,14.533,0,0,1-.494,1.985l-.846,2.668H57.743L55.935,8.719h1.4l.695,2.921q.252,1.036.417,1.972h.025q.152-.77.507-1.959l.872-2.932h1.113l.835,2.87q.3,1.05.493,2.023h.038a19.326,19.326,0,0,1,.417-2.023L63.5,8.72h1.341Z" transform="translate(-39.958 -5.9)" fill="#fff"/>
          <path id="Path_27" data-name="Path 27" d="M69.451,14.893H68.085V11.374q0-1.626-1.238-1.626a1.233,1.233,0,0,0-.987.447,1.586,1.586,0,0,0-.379,1.053v3.644H64.116V10.5q0-.809-.05-1.758h1.2l.064.961h.038a1.973,1.973,0,0,1,.708-.742,2.308,2.308,0,0,1,1.238-.345,1.961,1.961,0,0,1,1.43.556,2.7,2.7,0,0,1,.708,2.036Z" transform="translate(-37.492 -5.93)" fill="#fff"/>
          <path id="Path_28" data-name="Path 28" d="M71.406,15.519H70.041V6.556h1.365Z" transform="translate(-35.68 -6.556)" fill="#fff"/>
          <path id="Path_29" data-name="Path 29" d="M78.658,11.769a3.37,3.37,0,0,1-.809,2.326,2.891,2.891,0,0,1-2.251.936,2.742,2.742,0,0,1-2.156-.9,3.27,3.27,0,0,1-.8-2.262,3.337,3.337,0,0,1,.828-2.338,2.869,2.869,0,0,1,2.23-.91,2.812,2.812,0,0,1,2.176.9A3.244,3.244,0,0,1,78.658,11.769Zm-1.418.044a2.779,2.779,0,0,0-.366-1.458A1.347,1.347,0,0,0,75.65,9.62a1.367,1.367,0,0,0-1.252.735,2.816,2.816,0,0,0-.366,1.483A2.779,2.779,0,0,0,74.4,13.3a1.378,1.378,0,0,0,1.239.735,1.361,1.361,0,0,0,1.224-.748A2.749,2.749,0,0,0,77.24,11.813Z" transform="translate(-34.892 -5.929)" fill="#fff"/>
          <path id="Path_30" data-name="Path 30" d="M83.5,14.892H82.277l-.1-.708h-.038a2.1,2.1,0,0,1-1.795.847,1.852,1.852,0,0,1-1.4-.556,1.745,1.745,0,0,1-.481-1.251A1.909,1.909,0,0,1,79.4,11.5a4.89,4.89,0,0,1,2.65-.581v-.115q0-1.214-1.276-1.213a2.857,2.857,0,0,0-1.6.455l-.278-.9A3.94,3.94,0,0,1,81,8.623q2.408,0,2.411,2.541v2.262A9.6,9.6,0,0,0,83.5,14.892ZM82.086,12.78v-.947q-2.26-.039-2.26,1.238a.925.925,0,0,0,.262.721.955.955,0,0,0,.667.24,1.379,1.379,0,0,0,.835-.284,1.166,1.166,0,0,0,.5-.967Z" transform="translate(-33.127 -5.929)" fill="#fff"/>
          <path id="Path_31" data-name="Path 31" d="M89.65,15.519H88.438l-.064-.987h-.038a2.042,2.042,0,0,1-1.973,1.126,2.312,2.312,0,0,1-1.845-.872,3.4,3.4,0,0,1-.732-2.262,3.562,3.562,0,0,1,.8-2.415,2.448,2.448,0,0,1,1.9-.86,1.841,1.841,0,0,1,1.731.834h.026V6.556H89.6v7.307Q89.6,14.761,89.65,15.519Zm-1.415-2.591V11.9a2.011,2.011,0,0,0-.038-.43,1.556,1.556,0,0,0-.494-.828,1.342,1.342,0,0,0-.914-.335,1.4,1.4,0,0,0-1.2.607,2.6,2.6,0,0,0-.438,1.555,2.426,2.426,0,0,0,.42,1.479,1.406,1.406,0,0,0,1.194.606,1.316,1.316,0,0,0,1.079-.506A1.684,1.684,0,0,0,88.234,12.928Z" transform="translate(-31.512 -6.556)" fill="#fff"/>
          <path id="Path_32" data-name="Path 32" d="M98.648,11.769a3.37,3.37,0,0,1-.809,2.326,2.887,2.887,0,0,1-2.251.936,2.749,2.749,0,0,1-2.156-.9,3.27,3.27,0,0,1-.8-2.262,3.337,3.337,0,0,1,.828-2.338,2.871,2.871,0,0,1,2.233-.91,2.807,2.807,0,0,1,2.174.9A3.244,3.244,0,0,1,98.648,11.769Zm-1.415.044a2.779,2.779,0,0,0-.366-1.458A1.351,1.351,0,0,0,95.64,9.62a1.373,1.373,0,0,0-1.252.735,2.816,2.816,0,0,0-.366,1.483,2.779,2.779,0,0,0,.366,1.458,1.4,1.4,0,0,0,2.466-.013A2.773,2.773,0,0,0,97.233,11.813Z" transform="translate(-28.829 -5.929)" fill="#fff"/>
          <path id="Path_33" data-name="Path 33" d="M104.136,14.893h-1.365V11.374q0-1.626-1.239-1.626a1.228,1.228,0,0,0-.985.447,1.58,1.58,0,0,0-.379,1.053v3.644H98.8V10.5q0-.809-.048-1.758h1.2l.064.961h.038a1.993,1.993,0,0,1,.708-.742A2.313,2.313,0,0,1,102,8.62a1.96,1.96,0,0,1,1.428.556,2.7,2.7,0,0,1,.708,2.036Z" transform="translate(-26.973 -5.93)" fill="#fff"/>
          <path id="Path_34" data-name="Path 34" d="M110.807,10.1h-1.5v2.985c0,.759.267,1.138.8,1.138a2.4,2.4,0,0,0,.609-.064l.035,1.036a3.069,3.069,0,0,1-1.061.152,1.633,1.633,0,0,1-1.263-.493,2.41,2.41,0,0,1-.456-1.656V10.1h-.9V9.075h.9V7.949l1.338-.4V9.074h1.5V10.1Z" transform="translate(-24.452 -6.256)" fill="#fff"/>
          <path id="Path_35" data-name="Path 35" d="M116.726,15.519h-1.367V12.026q0-1.652-1.237-1.653a1.3,1.3,0,0,0-1.3.958,1.717,1.717,0,0,0-.064.491v3.695H111.39V6.556h1.365v3.7h.026a2.065,2.065,0,0,1,1.845-1.01,1.9,1.9,0,0,1,1.4.557,2.8,2.8,0,0,1,.695,2.06Z" transform="translate(-23.14 -6.556)" fill="#fff"/>
          <path id="Path_36" data-name="Path 36" d="M122.478,11.532a3.3,3.3,0,0,1-.051.619h-4.1a1.791,1.791,0,0,0,.593,1.391,2.035,2.035,0,0,0,1.341.43,4.525,4.525,0,0,0,1.656-.291l.214.949a5.144,5.144,0,0,1-2.062.379,2.978,2.978,0,0,1-2.243-.841,3.1,3.1,0,0,1-.815-2.256,3.516,3.516,0,0,1,.759-2.313,2.612,2.612,0,0,1,2.148-.985,2.285,2.285,0,0,1,2.008.985A3.28,3.28,0,0,1,122.478,11.532Zm-1.3-.353a1.839,1.839,0,0,0-.265-1.049,1.193,1.193,0,0,0-1.087-.57,1.3,1.3,0,0,0-1.087.556,2.068,2.068,0,0,0-.405,1.062h2.844Z" transform="translate(-21.434 -5.932)" fill="#fff"/>
        </g>
      </g>
    </g>
  </g>
</svg>
