<svg xmlns="http://www.w3.org/2000/svg" xmlns:xlink="http://www.w3.org/1999/xlink" width="167" height="60" viewBox="0 0 167 60">
  <defs>
    <linearGradient id="linear-gradient" x1="0.908" y1="1.032" x2="-0.383" y2="0.36" gradientUnits="objectBoundingBox">
      <stop offset="0" stop-color="#00a0ff"/>
      <stop offset="0.007" stop-color="#00a1ff"/>
      <stop offset="0.26" stop-color="#00beff"/>
      <stop offset="0.512" stop-color="#00d2ff"/>
      <stop offset="0.76" stop-color="#00dfff"/>
      <stop offset="1" stop-color="#00e3ff"/>
    </linearGradient>
    <linearGradient id="linear-gradient-2" x1="1.077" y1="0.729" x2="-1.307" y2="0.729" gradientUnits="objectBoundingBox">
      <stop offset="0" stop-color="#ffe000"/>
      <stop offset="0.409" stop-color="#ffbd00"/>
      <stop offset="0.775" stop-color="orange"/>
      <stop offset="1" stop-color="#ff9c00"/>
    </linearGradient>
    <linearGradient id="linear-gradient-3" x1="0.864" y1="-0.023" x2="-0.499" y2="-1.789" gradientUnits="objectBoundingBox">
      <stop offset="0" stop-color="#ff3a44"/>
      <stop offset="1" stop-color="#c31162"/>
    </linearGradient>
    <linearGradient id="linear-gradient-4" x1="-0.186" y1="2.701" x2="0.423" y2="1.909" gradientUnits="objectBoundingBox">
      <stop offset="0" stop-color="#32a071"/>
      <stop offset="0.069" stop-color="#2da771"/>
      <stop offset="0.476" stop-color="#15cf74"/>
      <stop offset="0.801" stop-color="#06e775"/>
      <stop offset="1" stop-color="#00f076"/>
    </linearGradient>
  </defs>
  <g id="play-store-01" transform="translate(-858 -637)">
    <rect id="Rectangle_2" data-name="Rectangle 2" width="167" height="60" rx="7" transform="translate(858 637)" fill="#020707"/>
    <g id="Group_3" data-name="Group 3" transform="translate(-199.248 53.758)">
      <g id="Group_2" data-name="Group 2">
        <path id="Path_3" data-name="Path 3" d="M48.806,10.973a3.362,3.362,0,0,1-.864,2.469A3.826,3.826,0,0,1,41.4,10.726,3.793,3.793,0,0,1,45.226,6.9a3.287,3.287,0,0,1,1.481.37,2.688,2.688,0,0,1,1.111.864l-.617.617a2.3,2.3,0,0,0-1.975-.864,2.456,2.456,0,0,0-1.975.864,2.543,2.543,0,0,0-.864,2.1,2.543,2.543,0,0,0,.864,2.1,3.178,3.178,0,0,0,1.975.864,2.707,2.707,0,0,0,2.1-.864,2.044,2.044,0,0,0,.617-1.481H45.226V10.48h3.58Zm5.678-3.086H51.151v2.345h3.086V11.1H51.151v2.345h3.333v.987h-4.32V7.023h4.32Zm4.073,6.542H57.57V7.887h-2.1V7.023h5.184v.864h-2.1Zm5.678,0V7.023h.987v7.406Zm5.184,0h-.987V7.887h-2.1V7.023h5.061v.864H69.3v6.542Zm11.726-.987A3.826,3.826,0,0,1,74.6,10.726a3.826,3.826,0,1,1,7.653,0A3.629,3.629,0,0,1,81.145,13.442Zm-4.69-.617a2.913,2.913,0,0,0,1.975.864,2.456,2.456,0,0,0,1.975-.864,2.978,2.978,0,0,0,.864-2.1,2.543,2.543,0,0,0-.864-2.1,2.913,2.913,0,0,0-1.975-.864,2.456,2.456,0,0,0-1.975.864,2.978,2.978,0,0,0-.864,2.1A2.543,2.543,0,0,0,76.455,12.825Zm7.159,1.6V7.023h1.111l3.58,5.8v-5.8h.987v7.406H88.3L84.478,8.381v6.048Z" transform="translate(1066.701 589.617)" fill="#fff" stroke="#fff" stroke-miterlimit="10" stroke-width="0.2"/>
        <path id="Path_4" data-name="Path 4" d="M74.427,22.9a5.193,5.193,0,0,0-5.308,5.308,5.268,5.268,0,0,0,5.308,5.308,5.193,5.193,0,0,0,5.308-5.308A5.121,5.121,0,0,0,74.427,22.9Zm0,8.393a3.064,3.064,0,0,1-2.962-3.209,3.064,3.064,0,0,1,2.962-3.209,2.99,2.99,0,0,1,2.962,3.209A3.064,3.064,0,0,1,74.427,31.295ZM62.947,22.9a5.193,5.193,0,0,0-5.308,5.308,5.268,5.268,0,0,0,5.308,5.308,5.193,5.193,0,0,0,5.308-5.308A5.121,5.121,0,0,0,62.947,22.9Zm0,8.393a3.064,3.064,0,0,1-2.962-3.209,3.064,3.064,0,0,1,2.962-3.209,2.99,2.99,0,0,1,2.962,3.209A3.064,3.064,0,0,1,62.947,31.295Zm-13.7-6.789v2.222h5.308a4.667,4.667,0,0,1-1.234,2.839,5.463,5.463,0,0,1-4.073,1.6,5.747,5.747,0,0,1-5.8-5.925,5.822,5.822,0,0,1,5.8-5.925,6.12,6.12,0,0,1,4.073,1.6l1.6-1.6A7.909,7.909,0,0,0,49.37,17.1a8.326,8.326,0,0,0-8.27,8.146,8.326,8.326,0,0,0,8.27,8.146,7.1,7.1,0,0,0,5.678-2.345,7.431,7.431,0,0,0,1.975-5.184,4.628,4.628,0,0,0-.123-1.358Zm56.038,1.728a4.8,4.8,0,0,0-4.444-3.333A4.971,4.971,0,0,0,95.9,28.209a5.165,5.165,0,0,0,5.184,5.308,5.063,5.063,0,0,0,4.32-2.345l-1.728-1.234a3.009,3.009,0,0,1-2.592,1.481,2.678,2.678,0,0,1-2.592-1.6l7.036-2.962Zm-7.159,1.728a3,3,0,0,1,2.715-3.086,2.183,2.183,0,0,1,1.975,1.111Zm-5.8,5.061h2.345V17.594H92.324Zm-3.7-9.011a4.064,4.064,0,0,0-2.839-1.234,5.3,5.3,0,0,0-5.061,5.308,5.111,5.111,0,0,0,5.061,5.184A3.544,3.544,0,0,0,88.5,32.035h.123v.741c0,1.975-1.111,3.086-2.839,3.086A2.742,2.742,0,0,1,83.19,34.01l-1.975.864a5.092,5.092,0,0,0,4.69,3.086c2.715,0,4.937-1.6,4.937-5.431V23.148H88.621Zm-2.715,7.282a3.064,3.064,0,0,1-2.962-3.209,3.064,3.064,0,0,1,2.962-3.209,2.97,2.97,0,0,1,2.839,3.209A2.97,2.97,0,0,1,85.906,31.295Zm30.117-13.7h-5.554V33.023h2.345v-5.8h3.209a4.82,4.82,0,1,0,0-9.628ZM116.146,25h-3.333V19.692h3.333a2.711,2.711,0,0,1,2.715,2.592A2.825,2.825,0,0,1,116.146,25Zm14.195-2.222a4.149,4.149,0,0,0-4.073,2.345l2.1.864a2.18,2.18,0,0,1,2.1-1.111,2.32,2.32,0,0,1,2.469,1.975v.123a4.9,4.9,0,0,0-2.345-.617c-2.222,0-4.444,1.234-4.444,3.456a3.616,3.616,0,0,0,3.826,3.456,3.473,3.473,0,0,0,2.962-1.481h.123v1.234h2.222V27.1A4.671,4.671,0,0,0,130.341,22.778Zm-.247,8.517c-.741,0-1.851-.37-1.851-1.358,0-1.234,1.358-1.6,2.469-1.6a4.774,4.774,0,0,1,2.1.494A2.875,2.875,0,0,1,130.094,31.295Zm12.96-8.146-2.592,6.665h-.123l-2.715-6.665h-2.469l4.073,9.381-2.345,5.184h2.345l6.3-14.565Zm-20.737,9.875h2.345V17.594h-2.345Z" transform="translate(1066.63 592.007)" fill="#fff"/>
      </g>
      <g id="Group_1" data-name="Group 1">
        <path id="Path_5" data-name="Path 5" d="M10.494,7.5A2.413,2.413,0,0,0,10,9.228V36.506a2.442,2.442,0,0,0,.617,1.728l.123.123L26.046,23.052v-.247Z" transform="translate(1059.343 589.757)" fill="url(#linear-gradient)"/>
        <path id="Path_6" data-name="Path 6" d="M27.961,26.292,22.9,21.231v-.37L27.961,15.8l.123.123,6.048,3.456c1.728.987,1.728,2.592,0,3.58Z" transform="translate(1062.366 591.702)" fill="url(#linear-gradient-2)"/>
        <path id="Path_7" data-name="Path 7" d="M31.013,25.184,25.829,20,10.4,35.429c.617.617,1.481.617,2.592.123Z" transform="translate(1059.437 592.686)" fill="url(#linear-gradient-3)"/>
        <path id="Path_8" data-name="Path 8" d="M31.013,17.822,12.992,7.577A2,2,0,0,0,10.4,7.7L25.829,23.006Z" transform="translate(1059.437 589.68)" fill="url(#linear-gradient-4)"/>
        <path id="Path_9" data-name="Path 9" d="M30.89,24.1l-17.9,10.121a2.019,2.019,0,0,1-2.469,0l-.123.123.123.123a2.019,2.019,0,0,0,2.469,0Z" transform="translate(1059.437 593.647)" opacity="0.2"/>
        <path id="Path_10" data-name="Path 10" d="M10.494,35.182A2.413,2.413,0,0,1,10,33.454v.123a2.442,2.442,0,0,0,.617,1.728v-.123ZM37.155,21.6l-6.172,3.456.123.123,6.048-3.456A2.052,2.052,0,0,0,38.389,20C38.389,20.617,37.9,21.111,37.155,21.6Z" transform="translate(1059.343 592.686)" opacity="0.12"/>
        <path id="Path_11" data-name="Path 11" d="M13.086,7.706l24.069,13.7c.741.494,1.234.987,1.234,1.6a2.052,2.052,0,0,0-1.234-1.728L13.086,7.583C11.358,6.6,10,7.336,10,9.311v.123C10,7.583,11.358,6.719,13.086,7.706Z" transform="translate(1059.343 589.675)" fill="#fff" opacity="0.25"/>
      </g>
    </g>
  </g>
</svg>
